<?xml version="1.0" encoding="utf-8"?>
<!-- Generator: Adobe Illustrator 23.0.1, SVG Export Plug-In . SVG Version: 6.00 Build 0)  -->
<svg version="1.1" xmlns="http://www.w3.org/2000/svg" xmlns:xlink="http://www.w3.org/1999/xlink" x="0px" y="0px"
	 viewBox="0 0 500 500" style="enable-background:new 0 0 500 500;" xml:space="preserve">
<style type="text/css">
	.st0{fill:#EBEBEB;}
	.st1{fill:#F5F5F5;}
	.st2{fill:#E0E0E0;}
	.st3{fill:#F0F0F0;}
	.st4{fill:#FAFAFA;}
	.st5{display:none;}
	.st6{display:inline;}
	.st7{fill:#407BFF;}
	.st8{opacity:0.9;fill:#FFFFFF;}
	.st9{fill:#263238;}
	.st10{fill:#FFB573;}
	.st11{fill:#515E58;}
	.st12{opacity:0.2;}
	.st13{fill:#E9CD35;}
	.st14{fill:#ED893E;}
	.st15{opacity:0.2;fill:#E9CD35;}
	.st16{fill:#FF8B7B;}
	.st17{opacity:0.1;}
	.st18{fill:#FF5652;}
	.st19{fill:#FFFFFF;}
	.st20{opacity:0.3;fill:#FFFFFF;}
</style>
<g id="Background_Complete">
	<g>
		<rect y="382.4" class="st0" width="500" height="0.3"/>
		<rect x="64.7" y="391.9" class="st0" width="20.9" height="0.3"/>
		<rect x="171.1" y="389.2" class="st0" width="24.2" height="0.3"/>
		<rect x="118.8" y="395.2" class="st0" width="19.2" height="0.3"/>
		<rect x="422" y="399.5" class="st0" width="27.9" height="0.3"/>
		<rect x="387.7" y="392.2" class="st0" width="21.6" height="0.3"/>
		<rect x="277.2" y="395.3" class="st0" width="48.5" height="0.3"/>
		<path class="st0" d="M237,337.8H43.9c-3.1,0-5.7-2.6-5.7-5.7V60.7c0-3.1,2.6-5.7,5.7-5.7H237c3.1,0,5.7,2.6,5.7,5.7v271.4
			C242.7,335.2,240.2,337.8,237,337.8z M43.9,55.2c-3,0-5.5,2.4-5.5,5.5v271.4c0,3,2.4,5.5,5.5,5.5H237c3,0,5.5-2.4,5.5-5.5V60.7
			c0-3-2.4-5.5-5.5-5.5H43.9z"/>
		<path class="st0" d="M453.3,337.8H260.2c-3.1,0-5.7-2.6-5.7-5.7V60.7c0-3.1,2.6-5.7,5.7-5.7h193.1c3.1,0,5.7,2.6,5.7,5.7v271.4
			C459,335.2,456.5,337.8,453.3,337.8z M260.2,55.2c-3,0-5.5,2.4-5.5,5.5v271.4c0,3,2.4,5.5,5.5,5.5h193.1c3,0,5.5-2.4,5.5-5.5V60.7
			c0-3-2.4-5.5-5.5-5.5H260.2z"/>
	</g>
	<g>
		<path class="st0" d="M41.7,382.4h-6.3c21.6-50,21.7-106.6,0.3-156.6h6.3C62.7,275.9,62.6,332.3,41.7,382.4z"/>
		<path class="st0" d="M87.2,382.4h-6.3c21.6-50,21.7-106.6,0.3-156.6h6.3C108.2,275.9,108.1,332.3,87.2,382.4z"/>
		<path class="st1" d="M124.3,310.3c0.8,24.6,6,49,15.7,72.1h6.3c-10-23-15.4-47.5-16.1-72.1H124.3z"/>
		<path class="st1" d="M78.8,310.3c0.8,24.6,6,49,15.7,72.1h6.3c-10-23-15.4-47.5-16.1-72.1H78.8z"/>
		<path class="st2" d="M126.5,316.5H60.9c-3.4,0-6.2-2.8-6.2-6.2l0,0c0-3.4,2.8-6.2,6.2-6.2h65.5c3.4,0,6.2,2.8,6.2,6.2l0,0
			C132.7,313.7,129.9,316.5,126.5,316.5z"/>
		<path class="st2" d="M101,279.2H68.6c-6.6,0-13.6-5.4-15.6-12l-11.3-37.3c-2-6.6,1.8-12,8.4-12h32.3c6.6,0,13.6,5.4,15.6,12
			l11.3,37.3C111.3,273.8,107.6,279.2,101,279.2z"/>
	</g>
	<g>
		<path class="st0" d="M448.7,382.4h6.3c-21.6-50-21.7-106.6-0.3-156.6h-6.3C427.7,275.9,427.8,332.3,448.7,382.4z"/>
		<path class="st0" d="M403.2,382.4h6.3c-21.6-50-21.7-106.6-0.3-156.6h-6.3C382.2,275.9,382.3,332.3,403.2,382.4z"/>
		<path class="st1" d="M366.1,310.3c-0.8,24.6-6,49-15.7,72.1h-6.3c10-23,15.4-47.5,16.1-72.1H366.1z"/>
		<path class="st1" d="M411.6,310.3c-0.8,24.6-6,49-15.7,72.1h-6.3c10-23,15.4-47.5,16.1-72.1H411.6z"/>
		<path class="st2" d="M363.9,316.5h65.5c3.4,0,6.2-2.8,6.2-6.2l0,0c0-3.4-2.8-6.2-6.2-6.2h-65.5c-3.4,0-6.2,2.8-6.2,6.2l0,0
			C357.7,313.7,360.5,316.5,363.9,316.5z"/>
		<path class="st2" d="M389.4,279.2h32.3c6.6,0,13.6-5.4,15.6-12l11.3-37.3c2-6.6-1.8-12-8.4-12h-32.3c-6.6,0-13.6,5.4-15.6,12
			L381,267.2C379,273.8,382.8,279.2,389.4,279.2z"/>
	</g>
	<g>
		<polygon class="st1" points="162.8,260.2 150.8,260.2 150.8,382.4 157.6,382.4 		"/>
		<polygon class="st1" points="323.7,260.2 335.7,260.2 335.7,382.4 328.9,382.4 		"/>
		<g>
			<g>
				<rect x="141.3" y="253.9" class="st2" width="22.7" height="120.6"/>
				<rect x="164" y="253.9" class="st0" width="13.6" height="112.7"/>
				<rect x="177.5" y="253.9" class="st2" width="22.7" height="120.6"/>
				<rect x="200.2" y="253.9" class="st0" width="13.6" height="112.7"/>
				<rect x="213.8" y="253.9" class="st2" width="22.7" height="120.6"/>
				<rect x="236.4" y="253.9" class="st0" width="13.6" height="112.7"/>
				<rect x="250" y="253.9" class="st2" width="22.7" height="120.6"/>
				<rect x="272.7" y="253.9" class="st0" width="13.6" height="112.7"/>
				<rect x="286.2" y="253.9" class="st2" width="22.7" height="120.6"/>
				<rect x="308.9" y="253.9" class="st0" width="13.6" height="112.7"/>
				<rect x="322.5" y="253.9" class="st2" width="22.7" height="120.6"/>
			</g>
			<path class="st1" d="M244.2,334.6l103.4-79.4c1.2-1,0.6-2.9-1-2.9H139.9c-1.6,0-2.2,2-1,2.9l103.4,79.4
				C242.8,335,243.6,335,244.2,334.6z"/>
		</g>
	</g>
	<g>
		<rect x="79.6" y="71" class="st3" width="340.7" height="121.6"/>
		<g>
			<path class="st3" d="M420.4,197.6c-0.3,0-0.7,0-1-0.1c-0.3-0.1-0.6-0.2-0.9-0.3c-0.3-0.1-0.6-0.3-0.9-0.5
				c-0.3-0.2-0.5-0.4-0.8-0.6c-0.2-0.2-0.4-0.5-0.6-0.8c-0.2-0.3-0.3-0.6-0.5-0.9c-0.1-0.3-0.2-0.6-0.3-0.9c-0.1-0.3-0.1-0.6-0.1-1
				c0-0.3,0-0.6,0.1-1c0.1-0.3,0.2-0.6,0.3-0.9c0.1-0.3,0.3-0.6,0.5-0.9c0.2-0.3,0.4-0.5,0.6-0.8c0.2-0.2,0.5-0.4,0.8-0.6
				c0.3-0.2,0.6-0.3,0.9-0.5c0.3-0.1,0.6-0.2,0.9-0.3c0.7-0.1,1.3-0.1,2,0c0.3,0.1,0.6,0.2,0.9,0.3c0.3,0.1,0.6,0.3,0.9,0.5
				c0.3,0.2,0.5,0.4,0.8,0.6c0.2,0.2,0.4,0.5,0.6,0.8c0.2,0.3,0.3,0.6,0.5,0.9c0.1,0.3,0.2,0.6,0.3,0.9c0.1,0.3,0.1,0.7,0.1,1
				c0,0.3,0,0.7-0.1,1c-0.1,0.3-0.2,0.6-0.3,0.9c-0.1,0.3-0.3,0.6-0.5,0.9c-0.2,0.3-0.4,0.5-0.6,0.8c-0.2,0.2-0.5,0.4-0.8,0.6
				c-0.3,0.2-0.6,0.3-0.9,0.5c-0.3,0.1-0.6,0.2-0.9,0.3C421,197.6,420.7,197.6,420.4,197.6z"/>
			<path class="st3" d="M405.3,192.6c0-2.8,2.2-5,5-5l0,0c2.8,0,5,2.2,5,5l0,0c0,2.8-2.2,5-5,5l0,0
				C407.6,197.6,405.3,195.4,405.3,192.6z M395.3,192.6c0-2.8,2.2-5,5-5l0,0c2.8,0,5,2.2,5,5l0,0c0,2.8-2.2,5-5,5l0,0
				C397.6,197.6,395.3,195.4,395.3,192.6z M385.3,192.6c0-2.8,2.2-5,5-5l0,0c2.8,0,5,2.2,5,5l0,0c0,2.8-2.2,5-5,5l0,0
				C387.5,197.6,385.3,195.4,385.3,192.6z M375.3,192.6c0-2.8,2.2-5,5-5l0,0c2.8,0,5,2.2,5,5l0,0c0,2.8-2.2,5-5,5l0,0
				C377.5,197.6,375.3,195.4,375.3,192.6z M365.3,192.6c0-2.8,2.2-5,5-5l0,0c2.8,0,5,2.2,5,5l0,0c0,2.8-2.2,5-5,5l0,0
				C367.5,197.6,365.3,195.4,365.3,192.6z M355.2,192.6c0-2.8,2.2-5,5-5l0,0c2.8,0,5,2.2,5,5l0,0c0,2.8-2.2,5-5,5l0,0
				C357.5,197.6,355.2,195.4,355.2,192.6z M345.2,192.6c0-2.8,2.2-5,5-5l0,0c2.8,0,5,2.2,5,5l0,0c0,2.8-2.2,5-5,5l0,0
				C347.5,197.6,345.2,195.4,345.2,192.6z M335.2,192.6c0-2.8,2.2-5,5-5l0,0c2.8,0,5,2.2,5,5l0,0c0,2.8-2.2,5-5,5l0,0
				C337.4,197.6,335.2,195.4,335.2,192.6z M325.2,192.6c0-2.8,2.2-5,5-5l0,0c2.8,0,5,2.2,5,5l0,0c0,2.8-2.3,5-5,5l0,0
				C327.4,197.6,325.2,195.4,325.2,192.6z M315.1,192.6c0-2.8,2.2-5,5-5l0,0c2.8,0,5,2.2,5,5l0,0c0,2.8-2.2,5-5,5l0,0
				C317.4,197.6,315.1,195.4,315.1,192.6z M305.1,192.6c0-2.8,2.2-5,5-5l0,0c2.8,0,5,2.2,5,5l0,0c0,2.8-2.2,5-5,5l0,0
				C307.4,197.6,305.1,195.4,305.1,192.6z M295.1,192.6c0-2.8,2.2-5,5-5l0,0c2.8,0,5,2.2,5,5l0,0c0,2.8-2.2,5-5,5l0,0
				C297.3,197.6,295.1,195.4,295.1,192.6z M285.1,192.6c0-2.8,2.2-5,5-5l0,0c2.8,0,5,2.2,5,5l0,0c0,2.8-2.2,5-5,5l0,0
				C287.3,197.6,285.1,195.4,285.1,192.6z M275.1,192.6c0-2.8,2.2-5,5-5l0,0c2.8,0,5,2.2,5,5l0,0c0,2.8-2.2,5-5,5l0,0
				C277.3,197.6,275.1,195.4,275.1,192.6z M265,192.6c0-2.8,2.2-5,5-5l0,0c2.8,0,5,2.2,5,5l0,0c0,2.8-2.2,5-5,5l0,0
				C267.3,197.6,265,195.4,265,192.6z M255,192.6c0-2.8,2.2-5,5-5l0,0c2.8,0,5,2.2,5,5l0,0c0,2.8-2.2,5-5,5l0,0
				C257.3,197.6,255,195.4,255,192.6z M245,192.6c0-2.8,2.2-5,5-5l0,0c2.8,0,5,2.2,5,5l0,0c0,2.8-2.2,5-5,5l0,0
				C247.2,197.6,245,195.4,245,192.6z M235,192.6c0-2.8,2.2-5,5-5l0,0c2.8,0,5,2.2,5,5l0,0c0,2.8-2.2,5-5,5l0,0
				C237.2,197.6,235,195.4,235,192.6z M225,192.6c0-2.8,2.2-5,5-5l0,0c2.8,0,5,2.2,5,5l0,0c0,2.8-2.2,5-5,5l0,0
				C227.2,197.6,225,195.4,225,192.6z M214.9,192.6c0-2.8,2.2-5,5-5l0,0c2.8,0,5,2.2,5,5l0,0c0,2.8-2.2,5-5,5l0,0
				C217.2,197.6,214.9,195.4,214.9,192.6z M204.9,192.6c0-2.8,2.2-5,5-5l0,0c2.8,0,5,2.2,5,5l0,0c0,2.8-2.2,5-5,5l0,0
				C207.1,197.6,204.9,195.4,204.9,192.6z M194.9,192.6c0-2.8,2.2-5,5-5l0,0c2.8,0,5,2.2,5,5l0,0c0,2.8-2.2,5-5,5l0,0
				C197.1,197.6,194.9,195.4,194.9,192.6z M184.9,192.6c0-2.8,2.2-5,5-5l0,0c2.8,0,5,2.2,5,5l0,0c0,2.8-2.2,5-5,5l0,0
				C187.1,197.6,184.9,195.4,184.9,192.6z M174.8,192.6c0-2.8,2.2-5,5-5l0,0c2.8,0,5,2.2,5,5l0,0c0,2.8-2.2,5-5,5l0,0
				C177.1,197.6,174.8,195.4,174.8,192.6z M164.8,192.6c0-2.8,2.2-5,5-5l0,0c2.8,0,5,2.2,5,5l0,0c0,2.8-2.2,5-5,5l0,0
				C167.1,197.6,164.8,195.4,164.8,192.6z M154.8,192.6c0-2.8,2.2-5,5-5l0,0c2.8,0,5,2.2,5,5l0,0c0,2.8-2.2,5-5,5l0,0
				C157,197.6,154.8,195.4,154.8,192.6z M144.8,192.6c0-2.8,2.2-5,5-5l0,0c2.8,0,5,2.2,5,5l0,0c0,2.8-2.2,5-5,5l0,0
				C147,197.6,144.8,195.4,144.8,192.6z M134.8,192.6c0-2.8,2.2-5,5-5l0,0c2.8,0,5,2.2,5,5l0,0c0,2.8-2.2,5-5,5l0,0
				C137,197.6,134.8,195.4,134.8,192.6z M124.7,192.6c0-2.8,2.2-5,5-5l0,0c2.8,0,5,2.2,5,5l0,0c0,2.8-2.2,5-5,5l0,0
				C127,197.6,124.7,195.4,124.7,192.6z M114.7,192.6c0-2.8,2.2-5,5-5l0,0c2.8,0,5,2.2,5,5l0,0c0,2.8-2.2,5-5,5l0,0
				C117,197.6,114.7,195.4,114.7,192.6z M104.7,192.6c0-2.8,2.2-5,5-5l0,0c2.8,0,5,2.2,5,5l0,0c0,2.8-2.2,5-5,5l0,0
				C106.9,197.6,104.7,195.4,104.7,192.6z M94.7,192.6c0-2.8,2.2-5,5-5l0,0c2.8,0,5,2.2,5,5l0,0c0,2.8-2.2,5-5,5l0,0
				C96.9,197.6,94.7,195.4,94.7,192.6z M84.6,192.6c0-2.8,2.2-5,5-5l0,0c2.8,0,5,2.2,5,5l0,0c0,2.8-2.2,5-5,5l0,0
				C86.9,197.6,84.6,195.4,84.6,192.6z"/>
			<path class="st3" d="M79.6,197.6c-0.3,0-0.7,0-1-0.1c-0.3-0.1-0.6-0.2-0.9-0.3c-0.3-0.1-0.6-0.3-0.9-0.5
				c-0.3-0.2-0.5-0.4-0.8-0.6c-0.9-0.9-1.5-2.2-1.5-3.5c0-1.3,0.5-2.6,1.5-3.5c0.2-0.2,0.5-0.4,0.8-0.6c0.3-0.2,0.6-0.3,0.9-0.5
				c0.3-0.1,0.6-0.2,0.9-0.3c1.6-0.3,3.4,0.2,4.5,1.4c0.9,0.9,1.5,2.2,1.5,3.5c0,1.3-0.5,2.6-1.5,3.5
				C82.2,197.1,80.9,197.6,79.6,197.6z"/>
			<path class="st3" d="M74.6,182.5c0-2.8,2.2-5,5-5l0,0c2.8,0,5,2.2,5,5l0,0c0,2.8-2.2,5-5,5l0,0C76.9,187.5,74.6,185.3,74.6,182.5
				z M74.6,172.4c0-2.8,2.2-5,5-5l0,0c2.8,0,5,2.2,5,5l0,0c0,2.8-2.2,5-5,5l0,0C76.9,177.4,74.6,175.1,74.6,172.4z M74.6,162.2
				c0-2.8,2.2-5,5-5l0,0c2.8,0,5,2.2,5,5l0,0c0,2.8-2.2,5-5,5l0,0C76.9,167.2,74.6,165,74.6,162.2z M74.6,152.1c0-2.8,2.2-5,5-5l0,0
				c2.8,0,5,2.2,5,5l0,0c0,2.8-2.2,5-5,5l0,0C76.9,157.1,74.6,154.9,74.6,152.1z M74.6,142c0-2.8,2.2-5,5-5l0,0c2.8,0,5,2.2,5,5l0,0
				c0,2.8-2.2,5-5,5l0,0C76.9,147,74.6,144.7,74.6,142z M74.6,131.8c0-2.8,2.2-5,5-5l0,0c2.8,0,5,2.2,5,5l0,0c0,2.8-2.2,5-5,5l0,0
				C76.9,136.8,74.6,134.6,74.6,131.8z M74.6,121.7c0-2.8,2.2-5,5-5l0,0c2.8,0,5,2.2,5,5l0,0c0,2.8-2.2,5-5,5l0,0
				C76.9,126.7,74.6,124.4,74.6,121.7z M74.6,111.6c0-2.8,2.2-5,5-5l0,0c2.8,0,5,2.2,5,5l0,0c0,2.8-2.2,5-5,5l0,0
				C76.9,116.6,74.6,114.3,74.6,111.6z M74.6,101.4c0-2.8,2.2-5,5-5l0,0c2.8,0,5,2.2,5,5l0,0c0,2.8-2.2,5-5,5l0,0
				C76.9,106.4,74.6,104.2,74.6,101.4z M74.6,91.3c0-2.8,2.2-5,5-5l0,0c2.8,0,5,2.2,5,5l0,0c0,2.8-2.2,5-5,5l0,0
				C76.9,96.3,74.6,94,74.6,91.3z M74.6,81.1c0-2.8,2.2-5,5-5l0,0c2.8,0,5,2.2,5,5l0,0c0,2.8-2.2,5-5,5l0,0
				C76.9,86.1,74.6,83.9,74.6,81.1z"/>
			<path class="st3" d="M79.6,76c-0.3,0-0.7,0-1-0.1c-0.3-0.1-0.6-0.2-0.9-0.3c-0.3-0.1-0.6-0.3-0.9-0.5c-0.3-0.2-0.5-0.4-0.8-0.6
				c-0.2-0.2-0.4-0.5-0.6-0.8c-0.2-0.3-0.3-0.6-0.5-0.9c-0.1-0.3-0.2-0.6-0.3-0.9c-0.1-0.3-0.1-0.7-0.1-1c0-1.3,0.5-2.6,1.5-3.5
				c0.2-0.2,0.5-0.4,0.8-0.6c0.3-0.2,0.6-0.3,0.9-0.5c0.3-0.1,0.6-0.2,0.9-0.3c1.6-0.3,3.4,0.2,4.5,1.4c0.9,0.9,1.5,2.2,1.5,3.5
				c0,0.3,0,0.7-0.1,1c-0.1,0.3-0.2,0.6-0.3,0.9c-0.1,0.3-0.3,0.6-0.5,0.9c-0.2,0.3-0.4,0.5-0.6,0.8C82.2,75.5,80.9,76,79.6,76z"/>
			<path class="st3" d="M405.3,71c0-2.8,2.2-5,5-5l0,0c2.8,0,5,2.2,5,5l0,0c0,2.8-2.2,5-5,5l0,0C407.6,76,405.3,73.8,405.3,71z
				 M395.3,71c0-2.8,2.2-5,5-5l0,0c2.8,0,5,2.2,5,5l0,0c0,2.8-2.2,5-5,5l0,0C397.6,76,395.3,73.8,395.3,71z M385.3,71
				c0-2.8,2.2-5,5-5l0,0c2.8,0,5,2.2,5,5l0,0c0,2.8-2.2,5-5,5l0,0C387.5,76,385.3,73.8,385.3,71z M375.3,71c0-2.8,2.2-5,5-5l0,0
				c2.8,0,5,2.2,5,5l0,0c0,2.8-2.2,5-5,5l0,0C377.5,76,375.3,73.8,375.3,71z M365.3,71c0-2.8,2.2-5,5-5l0,0c2.8,0,5,2.2,5,5l0,0
				c0,2.8-2.2,5-5,5l0,0C367.5,76,365.3,73.8,365.3,71z M355.2,71c0-2.8,2.2-5,5-5l0,0c2.8,0,5,2.2,5,5l0,0c0,2.8-2.2,5-5,5l0,0
				C357.5,76,355.2,73.8,355.2,71z M345.2,71c0-2.8,2.2-5,5-5l0,0c2.8,0,5,2.2,5,5l0,0c0,2.8-2.2,5-5,5l0,0
				C347.4,76,345.2,73.8,345.2,71z M335.2,71c0-2.8,2.2-5,5-5l0,0c2.8,0,5,2.2,5,5l0,0c0,2.8-2.2,5-5,5l0,0
				C337.4,76,335.2,73.8,335.2,71z M325.2,71c0-2.8,2.2-5,5-5l0,0c2.8,0,5,2.2,5,5l0,0c0,2.8-2.2,5-5,5l0,0
				C327.4,76,325.2,73.8,325.2,71z M315.1,71c0-2.8,2.2-5,5-5l0,0c2.8,0,5,2.2,5,5l0,0c0,2.8-2.2,5-5,5l0,0
				C317.4,76,315.1,73.8,315.1,71z M305.1,71c0-2.8,2.2-5,5-5l0,0c2.8,0,5,2.2,5,5l0,0c0,2.8-2.2,5-5,5l0,0
				C307.4,76,305.1,73.8,305.1,71z M295.1,71c0-2.8,2.2-5,5-5l0,0c2.8,0,5,2.2,5,5l0,0c0,2.8-2.2,5-5,5l0,0
				C297.3,76,295.1,73.8,295.1,71z M285.1,71c0-2.8,2.2-5,5-5l0,0c2.8,0,5,2.2,5,5l0,0c0,2.8-2.2,5-5,5l0,0
				C287.3,76,285.1,73.8,285.1,71z M275.1,71c0-2.8,2.2-5,5-5l0,0c2.8,0,5,2.2,5,5l0,0c0,2.8-2.3,5-5,5l0,0
				C277.3,76,275.1,73.8,275.1,71z M265,71c0-2.8,2.2-5,5-5l0,0c2.8,0,5,2.2,5,5l0,0c0,2.8-2.2,5-5,5l0,0C267.3,76,265,73.8,265,71z
				 M255,71c0-2.8,2.2-5,5-5l0,0c2.8,0,5,2.2,5,5l0,0c0,2.8-2.2,5-5,5l0,0C257.3,76,255,73.8,255,71z M245,71c0-2.8,2.2-5,5-5l0,0
				c2.8,0,5,2.2,5,5l0,0c0,2.8-2.2,5-5,5l0,0C247.2,76,245,73.8,245,71z M235,71c0-2.8,2.2-5,5-5l0,0c2.8,0,5,2.2,5,5l0,0
				c0,2.8-2.2,5-5,5l0,0C237.2,76,235,73.8,235,71z M225,71c0-2.8,2.2-5,5-5l0,0c2.8,0,5,2.2,5,5l0,0c0,2.8-2.2,5-5,5l0,0
				C227.2,76,225,73.8,225,71z M214.9,71c0-2.8,2.2-5,5-5l0,0c2.8,0,5,2.2,5,5l0,0c0,2.8-2.2,5-5,5l0,0
				C217.2,76,214.9,73.8,214.9,71z M204.9,71c0-2.8,2.2-5,5-5l0,0c2.8,0,5,2.2,5,5l0,0c0,2.8-2.2,5-5,5l0,0
				C207.1,76,204.9,73.8,204.9,71z M194.9,71c0-2.8,2.2-5,5-5l0,0c2.8,0,5,2.2,5,5l0,0c0,2.8-2.2,5-5,5l0,0
				C197.1,76,194.9,73.8,194.9,71z M184.9,71c0-2.8,2.2-5,5-5l0,0c2.8,0,5,2.2,5,5l0,0c0,2.8-2.2,5-5,5l0,0
				C187.1,76,184.9,73.8,184.9,71z M174.8,71c0-2.8,2.2-5,5-5l0,0c2.8,0,5,2.2,5,5l0,0c0,2.8-2.2,5-5,5l0,0
				C177.1,76,174.8,73.8,174.8,71z M164.8,71c0-2.8,2.2-5,5-5l0,0c2.8,0,5,2.2,5,5l0,0c0,2.8-2.2,5-5,5l0,0
				C167.1,76,164.8,73.8,164.8,71z M154.8,71c0-2.8,2.2-5,5-5l0,0c2.8,0,5,2.2,5,5l0,0c0,2.8-2.2,5-5,5l0,0
				C157,76,154.8,73.8,154.8,71z M144.8,71c0-2.8,2.2-5,5-5l0,0c2.8,0,5,2.2,5,5l0,0c0,2.8-2.2,5-5,5l0,0
				C147,76,144.8,73.8,144.8,71z M134.8,71c0-2.8,2.2-5,5-5l0,0c2.8,0,5,2.2,5,5l0,0c0,2.8-2.2,5-5,5l0,0
				C137,76,134.8,73.8,134.8,71z M124.7,71c0-2.8,2.2-5,5-5l0,0c2.8,0,5,2.2,5,5l0,0c0,2.8-2.2,5-5,5l0,0
				C127,76,124.7,73.8,124.7,71z M114.7,71c0-2.8,2.2-5,5-5l0,0c2.8,0,5,2.2,5,5l0,0c0,2.8-2.2,5-5,5l0,0
				C117,76,114.7,73.8,114.7,71z M104.7,71c0-2.8,2.2-5,5-5l0,0c2.8,0,5,2.2,5,5l0,0c0,2.8-2.2,5-5,5l0,0
				C106.9,76,104.7,73.8,104.7,71z M94.7,71c0-2.8,2.2-5,5-5l0,0c2.8,0,5,2.2,5,5l0,0c0,2.8-2.2,5-5,5l0,0
				C96.9,76,94.7,73.8,94.7,71z M84.6,71c0-2.8,2.2-5,5-5l0,0c2.8,0,5,2.2,5,5l0,0c0,2.8-2.2,5-5,5l0,0C86.9,76,84.6,73.8,84.6,71z"
				/>
			<path class="st3" d="M420.4,76c-0.3,0-0.7,0-1-0.1c-0.3-0.1-0.6-0.2-0.9-0.3c-0.3-0.1-0.6-0.3-0.9-0.5c-0.3-0.2-0.5-0.4-0.8-0.6
				c-0.2-0.2-0.4-0.5-0.6-0.8c-0.2-0.3-0.3-0.6-0.5-0.9c-0.1-0.3-0.2-0.6-0.3-0.9c-0.1-0.3-0.1-0.7-0.1-1c0-0.3,0-0.7,0.1-1
				c0.1-0.3,0.2-0.6,0.3-0.9c0.1-0.3,0.3-0.6,0.5-0.9c0.2-0.3,0.4-0.5,0.6-0.8c0.2-0.2,0.5-0.4,0.8-0.6c0.3-0.2,0.6-0.3,0.9-0.5
				c0.3-0.1,0.6-0.2,0.9-0.3c0.7-0.1,1.3-0.1,2,0c0.3,0.1,0.6,0.2,0.9,0.3c0.3,0.1,0.6,0.3,0.9,0.5c0.3,0.2,0.5,0.4,0.8,0.6
				c0.2,0.2,0.4,0.5,0.6,0.8c0.2,0.3,0.3,0.6,0.5,0.9c0.1,0.3,0.2,0.6,0.3,0.9c0.1,0.3,0.1,0.7,0.1,1c0,0.3,0,0.7-0.1,1
				c-0.1,0.3-0.2,0.6-0.3,0.9c-0.1,0.3-0.3,0.6-0.5,0.9c-0.2,0.3-0.4,0.5-0.6,0.8c-0.2,0.2-0.5,0.4-0.8,0.6
				c-0.3,0.2-0.6,0.3-0.9,0.5c-0.3,0.1-0.6,0.2-0.9,0.3C421,76,420.7,76,420.4,76z"/>
			<path class="st3" d="M415.4,182.5c0-2.8,2.2-5,5-5l0,0c2.8,0,5,2.2,5,5l0,0c0,2.8-2.2,5-5,5l0,0
				C417.6,187.5,415.4,185.3,415.4,182.5z M415.4,172.4c0-2.8,2.2-5,5-5l0,0c2.8,0,5,2.2,5,5l0,0c0,2.8-2.2,5-5,5l0,0
				C417.6,177.4,415.4,175.1,415.4,172.4z M415.4,162.2c0-2.8,2.2-5,5-5l0,0c2.8,0,5,2.2,5,5l0,0c0,2.8-2.2,5-5,5l0,0
				C417.6,167.2,415.4,165,415.4,162.2z M415.4,152.1c0-2.8,2.2-5,5-5l0,0c2.8,0,5,2.2,5,5l0,0c0,2.8-2.2,5-5,5l0,0
				C417.6,157.1,415.4,154.9,415.4,152.1z M415.4,142c0-2.8,2.2-5,5-5l0,0c2.8,0,5,2.2,5,5l0,0c0,2.8-2.2,5-5,5l0,0
				C417.6,147,415.4,144.7,415.4,142z M415.4,131.8c0-2.8,2.2-5,5-5l0,0c2.8,0,5,2.2,5,5l0,0c0,2.8-2.2,5-5,5l0,0
				C417.6,136.8,415.4,134.6,415.4,131.8z M415.4,121.7c0-2.8,2.2-5,5-5l0,0c2.8,0,5,2.2,5,5l0,0c0,2.8-2.2,5-5,5l0,0
				C417.6,126.7,415.4,124.4,415.4,121.7z M415.4,111.6c0-2.8,2.2-5,5-5l0,0c2.8,0,5,2.2,5,5l0,0c0,2.8-2.2,5-5,5l0,0
				C417.6,116.6,415.4,114.3,415.4,111.6z M415.4,101.4c0-2.8,2.2-5,5-5l0,0c2.8,0,5,2.2,5,5l0,0c0,2.8-2.2,5-5,5l0,0
				C417.6,106.4,415.4,104.2,415.4,101.4z M415.4,91.3c0-2.8,2.2-5,5-5l0,0c2.8,0,5,2.2,5,5l0,0c0,2.8-2.2,5-5,5l0,0
				C417.6,96.3,415.4,94,415.4,91.3z M415.4,81.1c0-2.8,2.2-5,5-5l0,0c2.8,0,5,2.2,5,5l0,0c0,2.8-2.2,5-5,5l0,0
				C417.6,86.1,415.4,83.9,415.4,81.1z"/>
		</g>
	</g>
	
		<rect x="197.2" y="-30.5" transform="matrix(-1.836970e-16 1 -1 -1.836970e-16 381.8211 -118.1788)" class="st4" width="105.6" height="324.7"/>
</g>
<g id="Background_Simple" class="st5">
	<g class="st6">
		<path class="st7" d="M406.2,262.6c-2.3,3.1-4.8,6.1-7.4,8.9c-22.7,24.2-60.3,39.9-93.5,31.4c-19.8-5.1-33.6-22.4-50.9-33.3
			c-21.7-13.7-49.2-16.9-74-20.8c-33.5-5.3-64.7-13.1-85.8-41.2C77,184.1,70.3,152.1,83,125.2c12-25.6,32.1-48.2,54.2-65.5
			c19-14.9,39.4-20.7,61.9-8.4c14.7,8.1,26,20.9,37.6,33c13.1,13.7,29.8,30.6,49.4,33.6c18.7,2.8,38-6.4,56.7-6.6
			c30.9-0.4,60.2,20.1,73.6,48C432.4,192.3,427.7,233.6,406.2,262.6z"/>
		<path class="st8" d="M406.2,262.6c-2.3,3.1-4.8,6.1-7.4,8.9c-22.7,24.2-60.3,39.9-93.5,31.4c-19.8-5.1-33.6-22.4-50.9-33.3
			c-21.7-13.7-49.2-16.9-74-20.8c-33.5-5.3-64.7-13.1-85.8-41.2C77,184.1,70.3,152.1,83,125.2c12-25.6,32.1-48.2,54.2-65.5
			c19-14.9,39.4-20.7,61.9-8.4c14.7,8.1,26,20.9,37.6,33c13.1,13.7,29.8,30.6,49.4,33.6c18.7,2.8,38-6.4,56.7-6.6
			c30.9-0.4,60.2,20.1,73.6,48C432.4,192.3,427.7,233.6,406.2,262.6z"/>
	</g>
</g>
<g id="Shadow_1_">
	<ellipse id="_x3C_Path_x3E__114_" class="st1" cx="250" cy="416.2" rx="193.9" ry="11.3"/>
</g>
<g id="Obj_1">
</g>
<g id="Character_1">
	<g>
		<path class="st9" d="M193.4,119.7c-7.8,6.4-15.4,16.8-10.9,28c4.5,11.2,33,12.4,39,7.7c7.8-6,0.9-32.7-5.2-32.9
			C215.8,112.6,199.9,114.3,193.4,119.7z"/>
		<path class="st10" d="M182.5,227.8c0,0,3.1,56.9,6.6,87.8c0.4,28.9,7,94.3,7,94.3l7.3,0c1.2-32.4,10.3-62.7,4.3-91.4
			c14-56.2,4.4-90.7,4.4-90.7L182.5,227.8z"/>
		<path class="st10" d="M190.4,227.8c0,0,15.1,63.1,19.2,90.1c4.3,28.3,10.8,83.1,10.5,92h6.3c0,0,10.6-55.5,0.8-91
			c8.1-80-11.9-91-11.9-91H190.4z"/>
		<path class="st10" d="M154.3,154.8c-0.5-3.4-6.7-3.7-6.7-3.7l-3-1.5c-1.3-0.6-2.6-0.3-3.2,0.7l-1,1.7c-0.7,1.2-0.2,2.8,1.1,3.7
			l0.9,0.7c1.5,1.1,3.4,1.8,5.3,1.9l2.8,0.1c0.6,0,1.2,0,1.8-0.2C153.7,157.7,154.6,156.3,154.3,154.8L154.3,154.8z"/>
		<path class="st10" d="M187.3,174.7c-0.4,0.4-0.6,0.6-0.9,0.8l-0.8,0.7c-0.5,0.4-1.1,0.9-1.6,1.3c-1.1,0.8-2.2,1.5-3.3,2.2
			c-2.3,1.4-4.7,2.5-7.1,3.5c-4.9,1.9-10.2,2.9-15.4,3l-0.1,0l-0.3,0c-0.2,0-0.5,0-0.7-0.1c-0.5-0.1-0.9-0.2-1.4-0.4
			c-0.8-0.4-1.5-0.8-2-1.3c-0.9-0.9-1.4-1.8-1.8-2.6c-0.7-1.5-1.1-2.9-1.4-4.2c-0.6-2.6-0.8-5.1-1-7.6c-0.3-5-0.1-9.8,0.3-14.7
			c0.1-1.2,1.2-2.1,2.4-2c1.1,0.1,1.9,0.9,2,2l0,0.1c0.5,4.7,1.2,9.4,2,13.9c0.4,2.3,0.9,4.5,1.5,6.5c0.3,1,0.7,1.9,1.1,2.5
			c0.2,0.3,0.4,0.4,0.3,0.3c-0.1-0.1-0.2-0.2-0.5-0.3c-0.2-0.1-0.3-0.1-0.5-0.1c-0.1,0-0.2,0-0.3,0l-0.1,0l0.1,0
			c2.2-0.2,4.3-0.6,6.4-1.1c2.1-0.5,4.1-1.2,6.1-2c2-0.8,3.9-1.8,5.7-3c0.9-0.6,1.8-1.2,2.6-1.8c0.4-0.3,0.8-0.6,1.2-1l0.6-0.5
			l0.4-0.4l0.3-0.2c1.9-1.6,4.7-1.5,6.3,0.4C189.1,170.4,189,173.1,187.3,174.7z"/>
		<path class="st2" d="M192.2,163.6c-7.9-1.3-16.2,4.1-20.5,8.4c-2.2,6.7,4.9,14.8,4.9,14.8s10.1-6.2,13.8-10.5
			C194.1,172.2,196.8,164.4,192.2,163.6z"/>
		<path class="st11" d="M216.7,227.1c0,0,11.2,7.9,13.3,34.3c0.8,10.4,2.3,51.7,5.5,69.5c-11.5,8.2-45.7,7.1-51.1,2.3
			c1.5-36-12.2-83.7-2.3-105.7C198.7,225.4,216.7,227.1,216.7,227.1z"/>
		<path class="st12" d="M205.4,302.6c0.2-15.1-2.1-36-8.8-48.3C198.9,269.7,205.4,302.6,205.4,302.6z"/>
		<path class="st2" d="M176.9,175.8c0,8.6-6.8,13.1,0.9,19.7c0.5,7.4,1,20.7,3.3,32.7c2.4,3.3,19.5,3,37.4-0.9
			c-2.3-10.3-1.5-27.2,4.6-50.3c1.4-5.3-2.1-10.8-7.6-11.8c-1.5-0.3-3-0.5-4.6-0.7c-6.2-0.8-11.3-1.3-16.8-1.3
			c-1.8,0-3.7,0.1-5.5,0.2C182,164,176.9,169.3,176.9,175.8z"/>
		<path class="st13" d="M220.8,223.6l-21,4.7c-0.8,0.2-1.6-0.3-1.8-1.1l-6.8-30c-0.2-0.8,0.3-1.6,1.1-1.8l21-4.7
			c0.8-0.2,1.6,0.3,1.8,1.1l6.8,30C222.1,222.6,221.6,223.4,220.8,223.6z"/>
		<path class="st13" d="M196.1,174.4c0,0-3.4,4.1-6.2,5l-0.3,2c6.1-0.8,9.2-4.8,9.2-4.8L196.1,174.4z"/>
		<path class="st13" d="M186.9,171.9c0,0-0.1,5.3,1.3,7.9l-1.1,1.7c-4-4.7-3.8-9.7-3.8-9.7L186.9,171.9z"/>
		<path class="st10" d="M210.2,145.6c-1.3,5.3-2.9,15.1,0.7,19c0,0-13.4,3.7-22.1,15.7c-4-12.6,5.3-16.9,5.3-16.9
			c6.1-1,6.2-5.5,5.3-9.7L210.2,145.6z"/>
		<path class="st12" d="M205.8,148.8l-6.4,4.7c0.2,1,0.3,2,0.4,3c2.3-0.2,5.6-2.4,6-4.8C205.9,150.6,205.9,149.4,205.8,148.8z"/>
		<path class="st10" d="M216.4,136.1c-2.6,8.6-3.5,12.3-8.9,15.7c-8.1,5.1-18-0.1-18.1-9.4c0-8.3,4.2-21,13.4-22.4
			C212,118.7,219,127.5,216.4,136.1z"/>
		<path class="st9" d="M209.7,123.5c-2.4,8.3-0.4,17,4.6,18c6.9-2.6,6.5-10.2,4.8-13.7C217.3,124.3,211.1,118.7,209.7,123.5z"/>
		<path class="st9" d="M213.4,138.4c-3.8,1.3-4.6,3.8-4.6,3.8s2.6-1.9,5.1-1.5C213.4,139.5,213.4,138.4,213.4,138.4z"/>
		<path class="st9" d="M203.9,135.3c-0.2,0.7-0.7,1.2-1.1,1.1c-0.5-0.1-0.7-0.8-0.5-1.5c0.2-0.7,0.7-1.2,1.1-1.1
			C203.8,133.9,204,134.6,203.9,135.3z"/>
		<path class="st9" d="M195,133.2c-0.2,0.7-0.7,1.2-1.1,1.1c-0.5-0.1-0.7-0.8-0.5-1.5c0.2-0.7,0.7-1.2,1.1-1.1
			C194.9,131.8,195.2,132.4,195,133.2z"/>
		<path class="st9" d="M194.7,131.7l-1.6-0.9C193.1,130.8,193.6,132.4,194.7,131.7z"/>
		<path class="st14" d="M196.7,134.3c0,0-1.9,2.8-3.6,3.9c0.7,1.1,2.4,1.1,2.4,1.1L196.7,134.3z"/>
		<path class="st10" d="M216.4,144.7c-1.2,1.4-2.9,2-4.3,2c-2.1-0.1-2.4-2.5-1.3-4.4c1-1.8,3.4-3.9,5.2-2.9
			C217.8,140.4,217.9,143.1,216.4,144.7z"/>
		<path class="st9" d="M205.5,132.2c-0.1-0.1-0.2-0.1-0.2-0.3c-0.6-1.8-2.2-2.3-2.2-2.3c-0.2-0.1-0.4-0.3-0.3-0.5
			c0.1-0.2,0.3-0.4,0.5-0.3c0.1,0,2,0.6,2.8,2.9c0.1,0.2,0,0.5-0.3,0.5C205.8,132.3,205.6,132.3,205.5,132.2z"/>
		<path class="st9" d="M191.8,128.9c-0.1,0-0.2,0-0.3-0.1c-0.2-0.2-0.2-0.4,0-0.6c1.6-1.8,3.6-1.4,3.6-1.4c0.2,0,0.4,0.3,0.4,0.5
			c0,0.2-0.3,0.4-0.5,0.4c-0.1,0-1.6-0.2-2.9,1.2C192,128.9,191.9,128.9,191.8,128.9z"/>
		<path class="st9" d="M203.5,133.9l-1.6-0.9C201.9,132.9,202.5,134.5,203.5,133.9z"/>
		<path class="st10" d="M203,204.9l-7.9-1.5l0.9,9.2c0,0,6-0.3,9.4-3l0.3-1.2C205.3,206.3,204.8,205.6,203,204.9z"/>
		<path class="st10" d="M190.2,207.2l0.9,3.9c0.3,1.2,1.4,1.9,2.6,1.7l2.2-0.4l-0.9-9.2l-3.4,1.2
			C190.5,204.9,189.9,206.1,190.2,207.2z"/>
		<path class="st10" d="M220.9,172c2.5,4.7,4.5,9.4,6.3,14.4c0.9,2.5,1.8,5,2.4,7.6c0.7,2.6,1.3,5.3,1.5,8.2
			c0.1,0.7,0.1,1.5,0.1,2.2l0,0.3l0,0.4c0,0.3-0.1,0.6-0.2,0.9c-0.1,0.6-0.4,1.1-0.7,1.6c-0.6,0.9-1.2,1.4-1.8,1.8
			c-1.1,0.7-2,1-2.8,1.3c-0.8,0.2-1.6,0.4-2.3,0.5c-2.9,0.4-5.6,0.4-8.2,0.3c-5.3-0.2-10.4-0.9-15.5-1.9c-1.2-0.2-2-1.4-1.8-2.6
			c0.2-1.1,1.1-1.8,2.2-1.8l0.1,0c5-0.1,10.1-0.2,14.9-0.6c2.4-0.2,4.9-0.5,6.9-1c0.5-0.1,1-0.3,1.4-0.4c0.4-0.1,0.7-0.3,0.6-0.3
			c0,0-0.2,0.1-0.5,0.5c-0.1,0.2-0.2,0.4-0.3,0.7c0,0.1-0.1,0.3-0.1,0.4c0,0.1,0,0.1,0,0.2l0,0.1l0,0c0-0.5-0.1-1-0.2-1.6
			c-0.7-4.3-2.3-9-4.1-13.5c-1.8-4.5-3.9-9.1-6-13.4l0-0.1c-1.1-2.2-0.2-4.9,2.1-6C217.1,168.9,219.8,169.8,220.9,172z"/>
		<path class="st2" d="M216,165.6c5.7,1.1,8.3,6.2,12.4,16.5c-1.3,6.9-11.5,10.6-11.5,10.6s-5.8-10.4-7-15.8
			C208.9,171.3,210.2,164.5,216,165.6z"/>
		<path class="st9" d="M203.9,410c0-0.2-0.3-0.4-0.7-0.4l-6.8-0.1c-0.7,0-1.5,0.1-2,0.4c-2,1.4-5.7,3-10.2,3.6
			c-1.4,0.2-0.8,2.6,2.6,2.7c5.6,0.1,6.6-0.4,11.4-0.3c4.1,0,2.1,0.2,5.4,0.3c0.8,0,1.4-0.5,1.3-1L203.9,410z"/>
		<path class="st9" d="M227.3,410c-0.1-0.2-0.3-0.4-0.7-0.4l-5.5-0.1c-0.7,0-1.5,0.1-2,0.4c-2,1.4-1.7,3-6.3,3.6
			c-1.4,0.2-0.7,2.6,2.7,2.7c5.6,0.1,5.3-0.3,7.6-0.3c2.3,0,0.9,0.2,4.1,0.3c0.8,0,1.4-0.5,1.3-1L227.3,410z"/>
		<path class="st4" d="M192.4,175.9c2.8,0.1,8.1,2.4,9.7,4.9c2.4-2.5,11.6-8.1,11.7-15.9c-2.1-1.9-4.1-2.1-4.1-2.1
			S197.5,168.9,192.4,175.9z"/>
		<path class="st4" d="M187.8,175.5c0,0-0.8-6.2,6.8-12.3c-0.8-0.6-3.7,0.1-3.7,0.1s-8.8,3.8-8.6,13.6
			C185,174.9,187.8,175.5,187.8,175.5z"/>
		<path class="st13" d="M186.7,178.1c-1.1,0.5-1.5,4.1,0,4.9c1.5,0.8,1.4-2.6,2.3-3.7C189.8,178.1,188.6,177.3,186.7,178.1z"/>
		<path class="st13" d="M188,179.5c-0.8,1,0.2,4.4,1.9,4.4c1.7,0,0.2-3,0.6-4.5C190.8,178,189.3,177.8,188,179.5z"/>
		<path class="st13" d="M188.2,182.1c-1.9-2.9-2,12.3,2.5,18.3C190.5,194.5,193.6,186.1,188.2,182.1z"/>
		<path class="st13" d="M188.1,181.9c-0.8-2.9-5,9.9-2.7,16.2C186.7,193.1,191.6,186.8,188.1,181.9z"/>
		<path class="st9" d="M202,142.1c0.4-0.2,0.8-0.4,1.2-0.7c0.1-0.1,0.1-0.2,0-0.3c-0.1-0.1-0.2-0.1-0.4-0.1c-3.1,2-6.1,0.9-6.1,0.9
			c-0.1-0.1-0.3,0-0.3,0.1c0,0.1,0,0.3,0.2,0.3C196.7,142.4,199.2,143.3,202,142.1z"/>
		<rect x="121.9" y="149.1" class="st13" width="51.1" height="1.7"/>
		<g>
			<polygon class="st13" points="171.8,150.8 123.1,150.8 125.2,152 169.6,152 			"/>
			<polygon class="st12" points="171.8,150.8 123.1,150.8 125.2,152 169.6,152 			"/>
		</g>
		<g>
			<path class="st9" d="M138.3,104.7L138.3,104.7c-0.6,0-1.1-0.5-1.1-1.1v-3.8c0-0.6,0.5-1.1,1.1-1.1l0,0c0.6,0,1.1,0.5,1.1,1.1v3.8
				C139.4,104.2,138.9,104.7,138.3,104.7z"/>
			<path class="st9" d="M136.4,99.5V99c0-0.5,0.4-0.9,0.9-0.9h1.9c0.5,0,0.9,0.4,0.9,0.9v0.5c0,0.5-0.4,0.9-0.9,0.9h-1.9
				C136.8,100.4,136.4,100,136.4,99.5z"/>
			<path class="st13" d="M140.1,112.9v-10.8c0-0.2-0.2-0.4-0.4-0.4h-2.7c-0.2,0-0.4,0.2-0.4,0.4v10.8c0,1.6-0.7,3.2-1.9,4.3l0,0
				c-1.2,1.1-1.9,2.7-1.9,4.3v27.7h11.3v-27.7c0-1.6-0.7-3.2-1.9-4.3l0,0C140.8,116.1,140.1,114.6,140.1,112.9z"/>
			<rect x="136.4" y="124.8" class="st2" width="7.5" height="17.9"/>
		</g>
		<g>
			<g>
				<path class="st13" d="M154.5,149.1h-1.4C153.2,149.1,153.8,149.2,154.5,149.1z"/>
				<path class="st13" d="M162.7,149.1h-1.4C162.1,149.2,162.7,149.1,162.7,149.1z"/>
				<path class="st15" d="M152.7,128v4.6c0,3.6,2.1,6.6,4.7,7c0,2.3,0,6.5,0,8c0,1.2-1.2,1.6-2.1,1.7h2.7h2.7
					c-0.9-0.1-2.1-0.4-2.1-1.7c0-1.4,0-5.6,0-8c2.6-0.4,4.7-3.4,4.7-7V128H152.7z"/>
			</g>
		</g>
		<path class="st9" d="M214.7,123.7c-4,1.7-17.4,2.2-22.7,1.1C197.5,117.1,209.7,114.9,214.7,123.7z"/>
		<path class="st9" d="M227.3,151.1c-0.1,0-0.2,0-0.2-0.1c-0.1-0.2-3.1-4.5-3.1-16.1c0-4.8-1.5-8.7-4-10.7c-1.4-1.1-3.1-1.5-4.7-1.1
			c-0.1,0-0.3,0-0.3-0.2c0-0.1,0-0.3,0.2-0.3c1.8-0.4,3.6,0,5.2,1.2c2.6,2.1,4.2,6.1,4.2,11.1c0.1,11.4,3,15.8,3,15.9
			c0.1,0.1,0.1,0.3-0.1,0.3C227.4,151.1,227.4,151.1,227.3,151.1z"/>
	</g>
</g>
<g id="Character_2">
	<g>
		<path class="st9" d="M299.3,92.2c2.8,3.8,2.8,9.8,1.8,13c-5-2.3-4.2-8.8-4.2-8.8L299.3,92.2z"/>
		<path class="st2" d="M314.2,139.5l2.9,3.2l3,3.2c2,2.1,4,4.2,6.1,6.2c1,1,2,2,3.1,2.9c1,0.9,2,1.8,3,2.6c1,0.8,2,1.5,2.9,2.2
			c0.9,0.6,1.8,1,2.2,1.2l-1.5-0.2c-0.9,0-1.3,0.3-1.3,0.3c0,0.1,0.2,0,0.6-0.2c0.7-0.4,1.6-1.1,2.6-2c1.9-1.8,3.9-3.9,5.7-6.2
			c1.9-2.3,3.8-4.7,5.6-7.2c1.9-2.5,3.7-5,5.5-7.5l0.1-0.1c1.5-2,4.3-2.4,6.3-0.9c1.6,1.2,2.2,3.2,1.6,5c-1,3.2-2.2,6.3-3.5,9.3
			c-1.3,3-2.8,6-4.4,9c-1.7,3-3.5,5.9-5.9,8.9c-1.2,1.5-2.6,3-4.4,4.5c-1,0.8-2.1,1.5-3.5,2.2c-1.4,0.7-3.4,1.3-5.9,1.2
			c-0.4,0-0.8-0.1-1.1-0.1l-0.4-0.1c-2.6-0.6-4.5-1.5-6.3-2.3c-1.8-0.9-3.3-1.9-4.8-2.9c-3-2-5.6-4.1-8.1-6.3
			c-2.5-2.2-4.9-4.5-7.1-6.8c-1.1-1.2-2.2-2.4-3.3-3.6c-1.1-1.2-2.1-2.4-3.2-3.8c-3.1-3.9-2.5-9.5,1.4-12.7c3.7-3,9.1-2.6,12.3,0.9
			L314.2,139.5z"/>
		<path class="st16" d="M359.1,143.4l8.9,0.4l-2.9-12c0,0-8.3,0.6-9.6,4.9c-0.1,0.5-0.1,1,0.1,1.4l1.6,3.9
			C357.5,142.8,358.2,143.3,359.1,143.4z"/>
		<path class="st16" d="M375.9,136.7l-1.7-4c-0.7-1.6-2.4-2.5-4.1-2.1l-5,1.2l2.9,12l6-2.4C375.8,140.6,376.7,138.5,375.9,136.7z"/>
		<path class="st11" d="M293.1,309.5c-9.5-41.6-15.3-91.8-15.3-91.8l38.8-0.6c0,0-0.5,67.6-0.5,95.9c0.1,29.4,2.1,94.3,2.1,94.3
			h-11.8C306.5,407.3,291.3,345.9,293.1,309.5z"/>
		<path d="M290.1,252.1l-6.1,9.1c1.8,11.4,4,23.9,6.5,36.1C291.6,278.5,291.4,256.6,290.1,252.1z"/>
		<path class="st9" d="M334,413.1c0,0-16.2-3.8-17.4-6.4l-9,0l0.1,9.5h5.6l0.9-0.9l1.4,0.9c4.5,0,16.5-0.2,19.3-1.2
			C334.8,413.6,334,413.1,334,413.1z"/>
		<path class="st11" d="M257.1,308.4c4.5-41.8,4.4-69.8,9.8-90.4l35.3-0.5c0,0-14.7,66.4-21.5,94c-6.9,27.7-18.5,95.9-18.5,95.9
			h-10.9C251.2,407.3,247.8,340.7,257.1,308.4z"/>
		<path class="st2" d="M264.1,226.1c-0.8,5-3.6,34.6-6.4,45.4c23.6,10.4,59.6,6.3,60.7-0.4c-0.3-12.6-1-44.9-1-44.9H264.1z"/>
		<path class="st17" d="M265.4,231.6c1.8,3.4,5.9,7.3,5.9,7.3S266.2,237.9,265.4,231.6z"/>
		<path class="st17" d="M312.7,238.6c1.7-2.1,3.3-6.5,3.3-6.5S316.2,237.2,312.7,238.6z"/>
		<path class="st17" d="M265.6,235.4c0.5,2.5,2.4,5.7,2.4,5.7S264.9,239.5,265.6,235.4z"/>
		<path class="st9" d="M272.3,413.1c0,0-10.1-3.8-11.3-6.4l-9,0l-0.2,9.5h7.4l0.9-0.9l1.4,0.9c4.5,0,8.7-0.2,11.5-1.2
			C273.1,413.6,272.3,413.1,272.3,413.1z"/>
		<path class="st9" d="M265.6,134.5c12.5-1.5,30.3-1.4,42.2,0.7c6.1,1.1,10.9,6.1,11.7,12.2c2.5,18,0.4,49.6-1.3,81.3
			c-27.3,9.3-56.1-0.1-56.1-0.1c-1-6.4,1.2-27.4,2.7-38.6c-2.3-11.6-7-24.8-10.2-40.2C253.2,142.3,258.2,135.4,265.6,134.5z"/>
		<path class="st11" d="M265.6,134.5c12.5-1.5,30.3-1.4,42.2,0.7c6.1,1.1,10.9,6.1,11.7,12.2c2.5,18,0.4,49.6-1.3,81.3
			c-27.3,9.3-56.1-0.1-56.1-0.1c-1-6.4,1.2-27.4,2.7-38.6c-2.3-11.6-7-24.8-10.2-40.2C253.2,142.3,258.2,135.4,265.6,134.5z"/>
		<g>
			<path class="st16" d="M277.9,110.6l14.2,11.6c-1.8,4.9-2.4,10,5.6,11.9c2,2.7-1,7.3-4.6,9.1c-8.4-1.9-13.3-4.2-16.5-8.7
				C277.7,131.1,279.3,117.8,277.9,110.6z"/>
			<path class="st12" d="M283.8,115.5l8.3,6.8c-0.4,1.2-0.8,2.4-1,3.5c-3.2,0.2-7.7-3-7.9-5.9C283.2,118.3,283.5,116.2,283.8,115.5z
				"/>
		</g>
		<path class="st16" d="M275.9,102.7c1.3,8.9,1.6,14.2,6.5,18.4c7.4,6.3,18.1,1.2,19.5-8c1.3-8.2-1.1-21.4-10.1-24.2
			C282.8,86.2,274.6,93.8,275.9,102.7z"/>
		<path class="st9" d="M275.8,106.8c0,0,2.9,3.4,7.4,1.9c-2.1-2.2-0.1-10.1-2.2-13.3c4.1,0.8,20.3,3.2,21.8-2.4
			c1.7-6-5-10.8-8.7-11.2c1.1,2.5,1,4.3-3.1,3.5c-4.1-0.8-21-4.7-19.1,3.2c-5.4,0-5.8,7.9-1.8,11.7
			C274,103.9,275.8,106.8,275.8,106.8z"/>
		<path class="st9" d="M272.8,88c-3.3-0.8-2.2-3.8-1.5-4.1c-3.1,0.7-4.2,3.7-0.5,5.1C274.5,90.4,272.8,88,272.8,88z"/>
		<path class="st16" d="M273.4,108.2c0.6,2.1,2.2,3.7,3.8,4.6c2.4,1.2,4.2-0.8,4-3.4c-0.2-2.3-1.7-5.8-4.4-6
			C274.2,103.2,272.6,105.7,273.4,108.2z"/>
		<path class="st9" d="M288.4,103c0.1,0.7,0.5,1.3,1,1.2c0.5,0,0.8-0.7,0.8-1.4c-0.1-0.7-0.5-1.3-1-1.2
			C288.7,101.6,288.3,102.3,288.4,103z"/>
		<path class="st9" d="M297.1,102.8c0.1,0.7,0.5,1.3,1,1.2c0.5,0,0.8-0.7,0.8-1.4c-0.1-0.7-0.5-1.3-1-1.2
			C297.4,101.4,297.1,102.1,297.1,102.8z"/>
		<path class="st18" d="M295.4,103.8c0,0,2,4.1,4,5.9c-1.2,1.3-3.4,1-3.4,1L295.4,103.8z"/>
		<path class="st9" d="M287.1,100.7c-0.1,0-0.1,0-0.2,0c-0.2-0.1-0.3-0.3-0.2-0.6c0.9-2.2,2.8-2.6,2.9-2.7c0.2,0,0.5,0.1,0.5,0.3
			c0,0.2-0.1,0.5-0.3,0.5l0,0c-0.1,0-1.6,0.4-2.3,2.1C287.3,100.6,287.2,100.7,287.1,100.7z"/>
		<path class="st9" d="M302.2,99.5c-0.1,0-0.3-0.1-0.4-0.2c-1-1.6-2.5-1.7-2.6-1.7c-0.2,0-0.4-0.2-0.4-0.4c0-0.2,0.2-0.4,0.4-0.4
			c0.1,0,2.1,0.1,3.3,2.1c0.1,0.2,0.1,0.5-0.1,0.6C302.3,99.5,302.3,99.5,302.2,99.5z"/>
		<path class="st2" d="M276.6,134.6c0,0,14.6,22.1,20.1,37.8c5.5-18.3,6.1-33,1-38.2C296.1,136.3,289.5,139.1,276.6,134.6z"/>
		<path class="st2" d="M271.7,151l-1.4,4l-1.4,4.2c-0.9,2.8-1.8,5.6-2.6,8.3c-0.4,1.4-0.8,2.7-1.1,4.1c-0.3,1.3-0.6,2.7-0.9,3.9
			c-0.2,1.3-0.4,2.5-0.5,3.6c-0.1,1.1-0.1,2.1,0,2.5l-0.5-1.5c-0.4-0.8-0.8-1-0.9-1c-0.1,0,0.1,0.2,0.4,0.4c0.6,0.4,1.8,0.9,2.9,1.3
			c2.4,0.8,5.3,1.5,8.2,2.1c2.9,0.6,6,1.1,9,1.5c3,0.5,6.2,0.8,9.2,1.3l0.1,0c2.5,0.4,4.2,2.6,3.8,5.1c-0.3,1.9-1.8,3.4-3.6,3.8
			c-3.3,0.7-6.5,1-9.9,1.4c-3.3,0.3-6.6,0.4-10,0.4c-3.4-0.1-6.9-0.2-10.6-0.9c-1.9-0.4-3.8-0.8-6.1-1.8c-1.1-0.5-2.3-1.1-3.6-2.1
			c-1.3-1-2.8-2.4-3.9-4.6c-0.2-0.3-0.3-0.7-0.4-1.1l-0.1-0.4c-0.7-2.5-0.9-4.7-1-6.7c-0.1-2,0.1-3.8,0.2-5.6
			c0.3-3.6,0.9-6.9,1.7-10.2c0.7-3.3,1.6-6.4,2.6-9.5c0.5-1.5,1-3.1,1.6-4.6c0.6-1.6,1.1-3,1.8-4.6c1.9-4.6,7.2-6.8,11.8-4.8
			c4.4,1.8,6.6,6.8,5,11.2L271.7,151z"/>
		<path class="st16" d="M293.6,187.1l8.8,1.1l-4.9,11.3c0,0-8.1-2-8.6-6.4c-0.1-0.5,0.1-1,0.3-1.4l2.3-3.6
			C292,187.4,292.8,187,293.6,187.1z"/>
		<path class="st16" d="M309.1,196.5l-2.4,3.7c-0.9,1.5-2.8,2-4.4,1.3l-4.7-2.1l4.9-11.3l5.5,3.4
			C309.7,192.6,310.2,194.9,309.1,196.5z"/>
		<path class="st4" d="M277.3,131.2c-3.4,0.7-4.8,2.6-4.8,2.6s5.5,8.2,16,10.7c-0.5-1.5,0.9-6,2.4-7.6
			C285.4,136.1,277.3,131.2,277.3,131.2z"/>
		<path class="st4" d="M292.7,131.7c3.4,0.7,5.3,2.2,5.3,2.2s5.6,6.2-1,9.8c0.5-1.5-3-5.6-6.1-6.8
			C296.5,136.1,292.7,131.7,292.7,131.7z"/>
		<path class="st13" d="M291.5,140.5c-4.4-2.4-9.9-4.9-8.4-0.8c1.5,4.2-0.5,5.6,1.5,7c2,1.4,6-2.5,7.3-3
			C293.3,143.1,291.5,140.5,291.5,140.5z"/>
		<path class="st13" d="M294.6,140.4c3.4-2.3,7.6-4.7,6.8-0.7c-0.7,4,1.1,5.5-0.4,6.8c-1.5,1.4-5.3-2.5-6.5-3
			C293.5,143,294.6,140.4,294.6,140.4z"/>
		<path class="st13" d="M290.9,140.1c1-0.6,3.4-1.4,4.6,0.3c1.2,1.6,0.8,4.4-0.8,4.7c-2.1,0.4-3.3-1.1-3.3-1.1
			S292.9,141.7,290.9,140.1z"/>
		<polygon points="262.8,407.6 250.6,408 250,401.1 264.1,401.9 		"/>
		<polygon points="318.7,407.6 305.6,408 304.2,402 318.8,400.6 		"/>
		<path class="st19" d="M290.2,184.7c-8.7-2.5-17.5-3.3-18.8-3.3c-1.4,0.1-1.9,30.8-1.8,43.4c0,1.7,19.6,1.4,24.6,0.6
			c0.3-3.5,0.3-29.1,1.6-37.1c0.2-1.3-0.5-2.5-1.7-3.1C292.1,184.4,290.2,184.7,290.2,184.7z"/>
		<g>
			<rect x="337.1" y="135.6" class="st13" width="55.5" height="1.6"/>
			<g>
				<polygon class="st13" points="391.4,137.1 338.2,137.1 340.2,138.2 389.4,138.2 				"/>
				<polygon class="st12" points="391.4,137.1 338.2,137.1 340.2,138.2 389.4,138.2 				"/>
			</g>
			<path class="st13" d="M367.1,113.2c0,1.3-1,2.3-2.3,2.3s-2.3-1-2.3-2.3c0-1.3,1-2.3,2.3-2.3S367.1,112,367.1,113.2z"/>
			<path class="st13" d="M388.8,128.2c-1.5-4.8-4.5-9-8.4-12.1l0.6-0.8c4.1,3.3,7.2,7.6,8.8,12.6L388.8,128.2z"/>
			<path class="st13" d="M376.9,113.8c-1.1-0.6-2.3-1.1-3.5-1.6l0.3-0.9c1.2,0.5,2.5,1,3.6,1.6L376.9,113.8z"/>
			<path class="st13" d="M364.8,113.2c-12.5,0-22.7,10.2-22.7,22.7h45.4C387.5,123.4,377.4,113.2,364.8,113.2z"/>
			<path class="st20" d="M345.2,133.9h5.9c0.4,0,0.8-0.3,0.8-0.7c1.2-6.2,4.9-11.6,10.8-16.4c0.6-0.5,0.2-1.5-0.6-1.4
				c-9.2,1.2-16.5,8.4-17.8,17.5C344.3,133.4,344.7,133.9,345.2,133.9z"/>
		</g>
		<path class="st9" d="M292.6,113.3c0.4,0,0.9,0,1.4-0.1c0.1,0,0.2-0.1,0.2-0.3c0-0.1-0.2-0.2-0.3-0.2c-3.6,0.5-5.8-1.8-5.8-1.8
			c-0.1-0.1-0.3-0.1-0.3,0c-0.1,0.1-0.1,0.2,0,0.3C287.8,111.3,289.6,113.2,292.6,113.3z"/>
	</g>
</g>
</svg>
